<svg width="33" height="34" viewBox="0 0 33 34" fill="none" xmlns="http://www.w3.org/2000/svg">
<path d="M0 0.0571928C0 0.102714 0.0540984 0.275695 0.12623 0.439572C0.198361 0.603449 0.504918 1.43194 0.811475 2.28774C1.11803 3.13444 1.42459 3.99024 1.49672 4.17233C1.56885 4.36352 1.67705 4.67306 1.74918 4.85515C1.82131 5.04634 2.12787 5.89303 2.43443 6.74884C2.74098 7.59553 3.03852 8.44223 3.11066 8.61521C3.18279 8.7882 3.42623 9.46191 3.65164 10.1174C3.88607 10.7638 4.12951 11.4649 4.21066 11.6651C4.59836 12.6757 5.53607 15.2704 5.73443 15.8531C5.83361 16.1536 5.85164 16.3447 5.79754 16.4449C5.70738 16.5815 5.42787 17.1004 4.86885 18.1292C4.23771 19.3036 4.0123 19.7133 3.65164 20.3597C3.44426 20.733 3.13771 21.2884 2.97541 21.5888C2.50656 22.4628 2.29918 22.827 1.98361 23.3915C1.82131 23.6828 1.7041 23.9286 1.72213 23.9468C1.74016 23.965 2.24508 24.2108 2.84016 24.5022C3.43525 24.7935 4.61639 25.3671 5.45492 25.7768C6.30246 26.1865 7.60082 26.8238 8.34016 27.1879C12.0279 28.9815 11.4238 28.59 14.0566 30.9116C15.3639 32.0678 16.4549 33.0147 16.491 33.0147C16.527 33.0147 16.6352 32.9418 16.7344 32.8508C16.9418 32.6687 18.3033 31.467 18.8082 31.0208C20.2959 29.7189 21.0713 29.0361 21.1705 28.9451C21.2787 28.8358 22.1533 28.3988 25.1107 26.9603C25.859 26.5962 27.1123 25.9862 27.9057 25.5947C28.6992 25.2123 29.7721 24.6843 30.2951 24.4293C30.818 24.1835 31.2508 23.965 31.2689 23.9559C31.2959 23.9286 31.0705 23.4916 30.5475 22.5448C30.1057 21.7436 29.1049 19.9318 28.6992 19.1762C28.5459 18.903 28.1311 18.1474 27.7795 17.501C27.4279 16.8637 27.1393 16.2901 27.1393 16.2355C27.1393 16.1445 27.6172 14.7788 27.9959 13.8047C28.1311 13.4587 29.123 10.7183 30.0246 8.20552C30.6016 6.58496 30.7279 6.2481 30.9533 5.65632C31.0344 5.45603 31.341 4.59112 31.6475 3.74443C31.9541 2.88862 32.2607 2.05103 32.3238 1.87805C32.5672 1.24985 33 0.0389843 33 0.00256715C33 -0.0429542 32.1705 0.521511 30.9533 1.39552C29.682 2.30595 27.6262 3.77174 26.5082 4.56381C26.2377 4.755 25.3811 5.36499 24.6148 5.91124C23.8484 6.4666 22.8115 7.20405 22.3156 7.55001C21.8197 7.90508 21.1344 8.39671 20.7828 8.65163L20.1607 9.11595L16.509 9.12505H12.8574L11.4508 8.11448C10.6844 7.55912 9.34098 6.59406 8.47541 5.97497C7.60984 5.36499 6.71721 4.72769 6.4918 4.56381C6.26639 4.40904 5.59918 3.92651 5.0041 3.50771C3.37213 2.36058 3.26393 2.27864 2.38934 1.65044C0.595082 0.366738 0 -0.03385 0 0.0571928ZM3.89508 23.5644C3.98525 23.61 4.22869 23.6737 4.43607 23.7192C4.65246 23.7647 5.3918 23.9468 6.08607 24.138C6.78033 24.3201 7.49262 24.5113 7.66393 24.5477C7.83525 24.5932 8.52951 24.7662 9.19672 24.9483C9.86393 25.1213 11.0992 25.4399 11.9467 25.6584L13.4705 26.0408L14.9852 27.5794L16.5 29.118L17.9877 27.5885L19.4754 26.0681L20.6656 25.7586C21.3238 25.5856 22.009 25.4126 22.1803 25.3671C22.4869 25.2943 23.082 25.1395 26.5533 24.2291C27.4459 23.9923 28.3475 23.7647 28.5639 23.7192C28.7713 23.6737 29.0148 23.61 29.1049 23.5644C29.1861 23.5189 29.3754 23.4552 29.5197 23.4188C29.9795 23.3095 29.6459 23.5826 28.8705 23.965C28.4918 24.1471 27.527 24.6205 26.7336 25.0029C23.7311 26.4687 22.027 27.3063 21.3959 27.6158C20.7557 27.9436 20.4672 28.1712 17.7713 30.5383L16.491 31.6672L15.941 31.1756C15.6344 30.9116 14.6877 30.074 13.8402 29.3274C12.9836 28.5718 12.109 27.8708 11.8926 27.7615C11.2254 27.4338 8.1418 25.9224 6.89754 25.3216C4.32787 24.0834 3.43525 23.6191 3.32705 23.4916C3.22787 23.3732 3.2459 23.3641 3.48033 23.4188C3.62459 23.4552 3.81393 23.5189 3.89508 23.5644Z" fill="black"/>
</svg>
